PathFileType	4	(X/Y/Z)	C:\Users\u0145647\OneDrive - KU Leuven\KU Leuven\c3d2osim\CP16\T0\Data\Processed\ViconC3D\CP16_T0_08_gapFilled.trc
DataRate	CameraRate	NumFrames	NumMarkers	Units	OrigDataRate	OrigDataStartFrame	OrigNumFrames
100.000000	100.000000	10	47	mm	100.000000	365	729
Frame#	Time	C7			T10			CLAV			STRN			LSHO			RSHO			RBAK			LASI			RASI			LPSI			RPSI			LLAT			RLAT			LF1			LF2			LF3			LTHI			LKNE			LMEK			RF1			RF2			RF3			RTHI			RKNE			RMEK			LT1			LT2			LT3			LTIB			LMM			LANK			RT1			RT2			RT3			RTIB			RANK			RMM			LHEE			LSTL			LLCA			LTOE			LCM5			RHEE			RSTL			RLCA			RTOE			RCM5
		X1	Y1	Z1	X2	Y2	Z2	X3	Y3	Z3	X4	Y4	Z4	X5	Y5	Z5	X6	Y6	Z6	X7	Y7	Z7	X8	Y8	Z8	X9	Y9	Z9	X10	Y10	Z10	X11	Y11	Z11	X12	Y12	Z12	X13	Y13	Z13	X14	Y14	Z14	X15	Y15	Z15	X16	Y16	Z16	X17	Y17	Z17	X18	Y18	Z18	X19	Y19	Z19	X20	Y20	Z20	X21	Y21	Z21	X22	Y22	Z22	X23	Y23	Z23	X24	Y24	Z24	X25	Y25	Z25	X26	Y26	Z26	X27	Y27	Z27	X28	Y28	Z28	X29	Y29	Z29	X30	Y30	Z30	X31	Y31	Z31	X32	Y32	Z32	X33	Y33	Z33	X34	Y34	Z34	X35	Y35	Z35	X36	Y36	Z36	X37	Y37	Z37	X38	Y38	Z38	X39	Y39	Z39	X40	Y40	Z40	X41	Y41	Z41	X42	Y42	Z42	X43	Y43	Z43	X44	Y44	Z44	X45	Y45	Z45	X46	Y46	Z46	X47	Y47	Z47

365	3.64	607.71	1438.3	-212.22	548.88	1164.2	-264.21	737.99	1349.5	-187.82	765.89	1180.5	-217.37	708.45	1387.6	-378.21	622.14	1346.5	-22.358	543.54	1330.5	-109.51	712.83	907.9	-412.85	728.96	904.05	-165.39	557	946.9	-323.54	560.4	934.52	-243.23	655.45	1000.2	-418.82	669.28	967.72	-134.06	661.65	659.57	-436.59	679.7	705.01	-437.41	635.54	695.99	-444.42	673.75	562.95	-468.76	641.72	438.5	-399.65	642.83	441.75	-281.21	725.44	691.63	-107.23	721.32	735.78	-108.06	687.68	715.86	-113.49	751.59	609.06	-60.145	821.73	472.3	-108.7	823.39	472.99	-228.08	574.82	391.55	-407.93	591.38	358.43	-391.02	546.35	351.19	-403.07	497.61	287.57	-446.16	331.03	183.45	-305.95	315.75	197.99	-395.21	808.47	331.17	-101.77	798.84	367.93	-97.205	836.05	359.38	-105.48	819.64	238.68	-64.593	776.42	68.856	-117.28	788.11	76.987	-209.79	276.68	228.13	-340.93	316.51	151.1	-314	296.31	169.88	-402.06	353.34	78.805	-410.57	318.34	94.515	-444.88	716.7	60.009	-158.39	798.86	43.948	-206.56	794.23	44.316	-110.5	897.62	48.772	-129.24	865.2	34.163	-86.601
366	3.65	617.53	1441.5	-209.57	559.72	1166.8	-260.89	748.44	1353.2	-186.36	776.67	1184.3	-215.16	717.34	1391.6	-376.32	634.55	1349	-19.657	555.26	1333.2	-106.13	724.03	911.57	-411.04	739.83	906.68	-163.2	568.06	949.98	-321.73	571.46	937.5	-241.86	666.1	1003.8	-417.05	680.17	970.07	-132.43	675.86	663.22	-436.58	692.99	708.91	-437.11	649.22	699.34	-443.39	688.64	567.15	-469.24	659.44	441.65	-400.41	662.11	444.88	-281.91	733.78	693.59	-106.35	732.87	738.24	-107.96	696.7	718.11	-112.46	758.94	610.65	-59.373	827	473.25	-108.49	829.59	472.33	-228.08	592.32	394.15	-407.79	609.72	361.08	-390.58	564.72	353.66	-402.8	515.98	289.86	-444.2	350.02	187.1	-302.56	334.3	200.16	-392.02	811.58	330.87	-101.53	802.83	367.94	-97.096	839.46	358.57	-105.38	820.98	237.45	-64.295	776.69	68.971	-117.31	788.39	76.934	-209.77	295.97	232.16	-337.86	335.27	154.91	-310.14	314.87	171.85	-397.9	370.44	79.543	-404.42	335.4	94.778	-439.04	716.92	60.269	-158.41	798.94	43.898	-206.63	794.35	44.329	-110.52	897.73	48.724	-129.28	865.32	34.05	-86.608
367	3.66	627.47	1444.3	-206.75	570.4	1169.6	-258.47	758.79	1356.7	-184.94	787.54	1187.8	-214.26	726.02	1395.2	-374.65	647.22	1351.4	-17.367	566.83	1336	-102.6	735.13	915.33	-409.35	750.95	909.59	-161.11	579.12	953.04	-320.29	582.51	940.28	-240.65	676.66	1007.3	-415.13	691.39	972.79	-130.86	689.97	666.91	-436.32	706.26	712.82	-436.57	662.46	702.78	-443.17	703.66	571.42	-470.03	677.13	444.85	-401.13	681.24	448.32	-282.72	742.65	695.31	-105.55	742.27	740.04	-106.86	705.21	720.73	-110.92	766.22	611.83	-58.82	831.65	472.11	-108.57	835.51	471.45	-228.11	610.78	396.78	-407.78	628.67	364.2	-390.82	583.34	356.33	-402.54	534.7	291.43	-443.18	369.04	190.96	-299.75	354.17	201.62	-389.84	815.17	330.28	-101.42	806.49	367.64	-96.687	843.1	358.03	-105.44	823.99	236.98	-64.59	776.91	69.037	-117.3	788.63	76.918	-209.76	315.29	235.35	-336.7	354.13	158.94	-306.41	334.29	173.03	-395.13	389.38	79.977	-398.04	354.68	94.189	-433.17	716.87	60.831	-157.95	798.99	43.82	-206.69	794.45	44.322	-110.48	898.01	48.621	-129.22	865.4	33.888	-86.504
368	3.67	637.06	1447.2	-204.39	580.91	1172.7	-255.34	768.97	1360	-183.44	798.26	1191.3	-212.85	734.57	1398.4	-373.16	660.03	1353.6	-14.753	578.45	1338.8	-99.031	745.96	918.8	-407.27	762.16	912.53	-159.36	589.76	955.74	-318.71	593.82	942.69	-239.29	687.23	1010.8	-413.35	702.8	975.55	-129.4	703.86	670.71	-435.73	719.6	716.81	-436.09	676.02	705.98	-442.4	718.92	575.56	-470.72	695.18	448.46	-401.61	700.26	451.8	-283.61	751.71	696.72	-104.67	750.01	741.2	-105.22	717.09	721.72	-111.71	773.36	611.92	-58.775	836.15	471.62	-107.78	839.84	470.21	-228.08	629.8	399.73	-407.76	647.47	367.06	-390.95	602.46	358.86	-402.33	554.26	293.69	-442.24	388.75	194.72	-297.12	374.18	202.36	-387.5	818.63	329.98	-101.4	810.51	367.45	-96.627	846.75	357.34	-105.45	827.78	237.09	-64.598	777.19	69.113	-117.31	788.66	76.95	-209.79	335.7	236.71	-336.06	374.2	162.15	-303.19	354.61	173.47	-392.38	409.39	80.144	-392.37	374.44	93.035	-427.8	717.04	61.226	-157.75	799.27	43.838	-206.79	794.64	44.344	-110.47	898.15	48.585	-129.07	865.59	33.836	-86.549
369	3.68	646.83	1449.7	-201.81	591.36	1174.9	-252.54	779.08	1363.3	-182.69	808.87	1194.8	-211.37	742.91	1401.5	-371.77	672.81	1355.8	-12.713	590.03	1341.6	-95.549	756.83	922.55	-405.76	773.37	915.31	-158.03	600.88	958.35	-316.75	604.71	945.28	-237.47	697.53	1014.2	-411.61	714.03	978.78	-127.17	718.26	674.46	-435.74	733.01	720.79	-435.6	689.66	709.31	-441.71	734.64	579.8	-471.62	713.31	451.7	-402.81	719.26	455.51	-284.4	760.02	697.61	-103.94	760.69	742.32	-104.46	725.98	723.75	-110.45	780.32	612.55	-58.119	841.05	471.69	-108.24	844.16	469.73	-227.89	648.67	402.19	-407.74	666.48	369.89	-391.03	621.84	361.64	-402.39	574.04	295.29	-441.3	409.48	197.4	-295.08	394.6	202.68	-385.52	821.9	329.84	-101.27	813.94	366.97	-96.352	850.11	356.91	-105.61	831.34	237.08	-64.511	777.54	69.301	-117.25	788.85	77.034	-209.75	355.53	238.84	-334.18	394.85	164.86	-300.51	375.08	173.61	-389.43	429.88	80.491	-387.66	394.47	92.192	-423.45	717.24	61.53	-157.74	799.15	43.797	-206.65	794.8	44.363	-110.44	898.27	48.481	-129.08	865.72	33.751	-86.53
370	3.69	656.4	1452.3	-199.44	601.71	1177.4	-250.17	789.13	1366.4	-181.74	819.45	1197.9	-210.79	751.07	1404.2	-370.66	685.67	1357.7	-10.692	601.53	1344.1	-92.21	767.43	925.85	-404.14	784.67	917.87	-156.49	611.6	960.62	-315.27	615.73	947.71	-236.01	707.63	1017.5	-409.97	726.42	981.74	-126.06	732.85	677.97	-435.76	746.64	724.51	-434.89	703.5	712.53	-441.34	750.74	583.84	-472.1	731.89	454.88	-403.52	738.17	458.95	-285.66	768.97	698.59	-102.97	770.27	743.06	-103.45	734.75	725.55	-108.8	787.83	612.9	-57.322	845.17	471.29	-107.67	848.21	469.58	-227.84	668.15	404.76	-408.32	686.24	372.83	-391.26	641.54	363.86	-402.54	594.15	296.38	-440.61	430.52	199.59	-293.22	415.18	203.07	-383.85	824.94	329.62	-101.08	816.97	366.72	-96.26	853	356.5	-105.56	834.13	235.58	-65.207	777.77	69.363	-117.31	789.17	77.135	-209.67	375.92	239.74	-333.83	416.41	166.84	-298.49	395.38	173.64	-387.38	450.91	80.755	-384.17	414.87	91.522	-419.66	717.71	61.996	-157.92	799.29	43.843	-206.67	794.98	44.439	-110.43	898.55	48.471	-129.08	865.82	33.639	-86.474
371	3.7	665.91	1454.6	-197.24	611.85	1179.5	-247.4	799.06	1369.2	-180.93	829.99	1200.8	-209.9	759.17	1406.7	-369.72	698.25	1359.7	-8.8795	612.84	1346.5	-88.97	777.78	929.18	-402.77	796.11	920.32	-155.49	622.04	962.95	-312.98	626.52	950.18	-233.9	717.56	1020.2	-408.06	736.7	984.55	-124.53	747.46	681.39	-435.38	760.34	728	-434.48	717.22	715.46	-440.61	767.17	587.57	-472.59	750.74	458.36	-404.7	756.75	462.17	-286.91	777.68	699.4	-102.01	780.16	743.92	-102.85	744.13	726.9	-107.91	795.6	613.88	-56.317	848.92	470.28	-107.45	851.15	469.15	-227.49	688.62	407.53	-409.07	705.79	375.27	-391.4	661.63	366.02	-402.87	615.11	297.44	-440.43	452.28	201.08	-292.18	435.72	203.76	-382.68	827.26	329.58	-100.91	819.94	366.75	-95.895	855.69	356.05	-105.49	836.39	235.36	-65.263	777.96	69.489	-117.27	789.39	77.291	-209.62	396.59	240.93	-332.06	438.05	168.51	-296.66	416.08	173.98	-385.59	472.17	81.159	-381.6	435.4	91.26	-416.45	717.83	62.402	-157.72	799.33	43.857	-206.67	795.15	44.504	-110.41	898.84	48.406	-128.97	865.88	33.555	-86.433
372	3.71	675.34	1456.7	-195.26	621.93	1181.4	-244.98	808.87	1371.8	-180.5	840.25	1203.2	-208.91	767.16	1408.8	-368.92	710.43	1361.5	-7.1743	624.04	1348.5	-86.254	788.08	932.05	-401.39	807.34	922.49	-154.51	632.63	965.18	-311.13	637.46	952.55	-231.92	727.33	1022.8	-406.39	748.35	986.99	-123.14	762.14	684.62	-435.21	773.94	731.41	-433.74	731.24	718.09	-440.29	783.79	591.32	-472.97	769.79	461.25	-405.84	776.04	465.45	-288.11	786.16	701.02	-100.6	789.64	744.92	-101.99	753.15	728.6	-106.47	803.02	614.62	-55.612	853.04	470.54	-106.89	854.07	468.87	-227.26	707.15	409.5	-409.48	726.27	378.64	-392.77	681.64	368.47	-403.44	636.3	298.55	-439.78	474.12	202.54	-291.24	456.51	204.14	-381.54	829.24	329.31	-100.44	822.53	366.49	-95.449	858.18	355.76	-105.3	837.57	235.55	-65.092	778.22	69.636	-117.13	789.66	77.416	-209.56	417.37	241.97	-330.91	459.95	169.95	-295.83	437.07	174.52	-383.99	493.75	81.95	-379.86	456.16	91.366	-414.37	717.92	62.442	-157.62	799.39	43.875	-206.66	795.26	44.547	-110.35	898.37	48.205	-129.03	865.9	33.454	-86.378
373	3.72	684.66	1458.6	-193.54	632.02	1182.8	-242.68	818.55	1374.2	-180.03	850.82	1205.9	-208.56	775.01	1410.7	-368.25	722.39	1363.3	-5.5992	635.18	1350.3	-83.844	798.25	934.63	-399.91	818.62	924.53	-153.47	642.97	967.12	-308.9	648.27	954.69	-229.88	737.01	1025	-404.92	759.78	989.42	-121.71	776.96	687.68	-435.09	787.55	734.59	-432.98	745.25	720.43	-438.98	800.28	595.13	-473.58	788.85	464.76	-406.96	795.41	468.1	-289.51	794.69	702	-99.672	798.55	746.16	-100.75	761.94	730.75	-104.8	810.69	615.52	-54.606	856.9	470.3	-106.52	857	468.54	-226.88	727.13	412.03	-410.6	746.16	381.45	-393.73	701.94	370.61	-404.07	657.24	299.61	-439.82	495.81	203.96	-290.69	477.6	204.97	-381.2	831.44	328.84	-100.33	825.15	366.19	-95.041	860.6	354.98	-105.02	838.46	235.36	-64.642	778.49	69.73	-117.05	789.9	77.522	-209.49	438.48	242.8	-330.3	481.88	171.53	-294.9	458.08	175.17	-383.01	515.38	83.228	-378.97	477.23	91.669	-412.78	717.69	63.32	-156.96	799.5	43.957	-206.61	795.41	44.56	-110.28	898.49	48.125	-128.97	865.95	33.362	-86.294
374	3.73	693.91	1460.4	-191.9	642.1	1184.7	-240.55	828.15	1376.3	-179.61	861.02	1208.4	-208.09	782.78	1412.2	-367.74	734.27	1365	-4.1929	646.06	1352	-81.508	808.41	937.12	-398.61	829.6	926.35	-152.06	653.39	968.52	-307.32	658.94	956.8	-227.87	746.65	1026.8	-403.26	771.95	991.29	-120.55	791.49	690.64	-434.81	801.15	737.62	-432.53	758.91	722.78	-438.88	816.59	598.8	-474.06	808.01	467.73	-408.29	814.93	470.92	-290.73	802.91	703.16	-98.572	808.05	747.57	-99.852	770.68	732.67	-103.49	817.31	615.81	-53.883	860.98	470.22	-106.04	859.83	467.96	-226.63	747	414.52	-411.29	766.5	384.03	-394.7	722.3	372.92	-404.66	678.53	301.36	-439.88	517.32	205.64	-290.34	498.52	206.06	-381.15	833.63	328.74	-99.975	827.47	365.95	-94.679	862.69	354.38	-104.7	839.43	235.5	-63.838	778.72	69.896	-116.94	790.12	77.623	-209.4	459.77	243.44	-330.49	503.88	173.02	-294.75	479.27	176.15	-382.84	537.71	84.72	-378.08	498.93	92.178	-411.16	718.04	63.211	-157.31	799.54	43.988	-206.6	795.49	44.562	-110.2	898.51	48.016	-128.82	865.96	33.217	-86.162
